<svg width="1358" height="75" viewBox="0 0 1358 75" fill="none" xmlns="http://www.w3.org/2000/svg">
<path d="M315.6 8.83508H315.4L2.5 73.135L2.7 74.535H3.1L315.5 10.3351L366.5 27.3351H366.6C367.9 27.2351 498.7 20.4351 504.4 19.8351C504.9 19.8351 505.4 19.8351 505.9 19.8351C507.1 19.8351 508.3 19.935 509.5 20.135C510.5 20.335 511.6 20.635 512.5 21.135C513.2 21.435 513.8 21.935 514.2 22.635L514.3 22.735L514.4 22.8351C516.9 25.1351 519.2 27.535 521.4 30.135C522.3 31.235 523.4 32.035 524.7 32.535C525.8 33.035 527 33.335 528.2 33.535C528.9 33.635 529.7 33.635 530.4 33.635C531 33.635 531.6 33.635 532.1 33.535H678.2V33.9351H828.1C828.7 34.0351 829.3 34.035 829.8 34.035C830.5 34.035 831.3 34.0351 832 33.9351C833.2 33.8351 834.4 33.4351 835.5 32.9351C836.8 32.4351 837.9 31.535 838.8 30.535C840.9 27.935 843.3 25.435 845.8 23.235L845.9 23.135L846 23.035C846.4 22.435 847 21.835 847.7 21.535C848.6 21.035 849.7 20.735 850.7 20.535C851.9 20.335 853.1 20.235 854.3 20.235C854.8 20.235 855.3 20.235 855.8 20.235C860.8 20.735 970.5 26.7351 992.4 27.9351H993.1H993.2L1037.3 12.635L1357.2 72.735L1256.9 54.235L1037.1 11.135L1036.9 11.235L992.8 26.535H992.6C979.1 25.835 860.7 19.3351 855.8 18.8351C855.2 18.8351 854.7 18.8351 854.2 18.8351C852.9 18.8351 851.5 18.935 850.2 19.135C849 19.335 847.8 19.7351 846.8 20.3351C845.9 20.7351 845.2 21.435 844.6 22.235C842.1 24.535 839.7 27.035 837.6 29.635C836.8 30.535 835.9 31.235 834.8 31.635C833.8 32.035 832.7 32.3351 831.6 32.4351C830.9 32.5351 830.2 32.535 829.6 32.535C829.1 32.535 828.5 32.5351 828 32.4351H682.2V32.035H532.2C531.7 32.135 531.1 32.135 530.6 32.135C529.9 32.135 529.2 32.135 528.5 32.035C527.4 31.935 526.4 31.635 525.3 31.235C524.2 30.735 523.3 30.035 522.5 29.235C520.3 26.635 518 24.1351 515.5 21.8351C515 21.0351 514.2 20.3351 513.3 19.9351C512.2 19.3351 511.1 18.935 509.9 18.735C508.6 18.535 507.3 18.3351 505.9 18.4351C505.4 18.4351 504.8 18.4351 504.3 18.4351C499.2 19.0351 380.4 25.2351 366.8 25.9351H366.7L315.6 8.83508ZM993.3 27.035H992.7C970.7 25.835 861 19.8351 856.1 19.3351C861.1 19.8351 979.4 26.335 992.9 27.035H993.3ZM504.5 18.9351C505 18.9351 505.5 18.9351 505.9 18.9351C507.2 18.9351 508.5 19.035 509.7 19.235C510.5 19.435 511.3 19.6351 512.1 19.9351C511.3 19.6351 510.5 19.335 509.6 19.235C508.4 19.035 507.1 18.9351 505.8 18.9351C505.5 18.9351 505 18.9351 504.5 18.9351ZM847.8 20.535C848.7 20.135 849.7 19.735 850.7 19.635C851.9 19.435 853.1 19.3351 854.3 19.3351C853.1 19.3351 852 19.435 850.8 19.635C849.8 19.735 848.8 20.135 847.8 20.535ZM366.9 26.4351C378.7 25.8351 466.2 21.235 495.2 19.535C465.2 21.335 373 26.1351 366.9 26.4351ZM845.6 22.4351C846 21.7351 846.7 21.1351 847.4 20.8351C846.7 21.1351 846.1 21.7351 845.6 22.4351ZM514.9 22.135C514.8 22.035 514.7 21.835 514.7 21.735C514.8 21.835 514.8 21.935 514.9 22.135C515 22.235 515.1 22.2351 515.2 22.4351C515 22.2351 514.9 22.135 514.9 22.135ZM844.9 23.135C845.3 22.835 845.5 22.635 845.6 22.535C845.6 22.535 845.3 22.735 844.9 23.135ZM832.3 33.035C833.4 32.935 834.4 32.635 835.4 32.135C836.2 31.835 836.9 31.3351 837.5 30.8351C836.9 31.3351 836.1 31.835 835.4 32.135C834.5 32.535 833.4 32.835 832.3 33.035ZM525.1 31.735C525 31.635 524.8 31.635 524.7 31.535C524.8 31.635 524.9 31.635 525.1 31.735ZM532.2 32.735H681.4V33.135H679V32.735H532.2C531.6 32.835 531.1 32.8351 530.5 32.8351C529.9 32.8351 529.3 32.835 528.7 32.735C529.3 32.835 529.9 32.8351 530.4 32.8351C531.1 32.8351 531.7 32.735 532.2 32.735ZM830 33.135C830.7 33.135 831.3 33.135 832 33.035C831.3 33.135 830.6 33.135 830 33.135C829.4 33.135 828.9 33.135 828.3 33.035C828.8 33.135 829.4 33.135 830 33.135Z" fill="url(#paint0_linear_118_4)"/>
<path d="M676 73.035H0L311.9 9.93506L363.5 26.535C363.5 26.535 491.3 20.635 499.6 19.535C508.1 18.135 510.5 20.9351 510.5 20.9351C513.6 23.8351 516.6 26.835 519.3 30.135C522.5 34.135 528.8 32.9351 528.8 32.9351H826C826 32.9351 832.3 34.135 835.5 30.135C838.3 26.935 841.2 23.8351 844.3 20.9351C844.3 20.9351 846.8 18.135 855.2 19.535C863.8 20.735 991.8 27.535 991.8 27.535L1034.1 12.4351L1354.9 73.035H676Z" fill="url(#paint1_linear_118_4)"/>
<path d="M2.90002 73.4351L315.5 9.23499H315.6L366.7 26.235C370.3 26.035 499.1 19.235 504.4 18.735C506.2 18.635 508.1 18.735 509.9 19.035C511.1 19.235 512.2 19.635 513.2 20.235C514 20.635 514.8 21.335 515.3 22.135C517.8 24.435 520.2 26.935 522.3 29.535C523.1 30.435 524.1 31.235 525.2 31.635C526.2 32.035 527.3 32.335 528.5 32.535C529.7 32.735 531 32.735 532.2 32.535H681.8V32.9351H828.3C829.5 33.0351 830.8 33.0351 832 32.9351C833.1 32.8351 834.2 32.535 835.3 32.035C836.4 31.535 837.4 30.8351 838.2 29.9351C840.4 27.3351 842.7 24.835 845.2 22.535C845.7 21.735 846.4 21.135 847.3 20.635C848.3 20.035 849.5 19.7351 850.6 19.4351C852.4 19.1351 854.3 19.035 856.1 19.135C861.2 19.735 989.5 26.6351 993.2 26.8351L1037.4 11.4351H1037.5L1357.5 72.9351L1357.4 73.635L1037.5 12.235L993.3 27.635H993.2H993.1C991.8 27.535 861.2 20.4351 855.9 19.9351C854.1 19.8351 852.4 19.935 850.6 20.235C849.5 20.435 848.5 20.735 847.5 21.235C846.7 21.635 846.1 22.1351 845.6 22.8351V22.9351L845.5 23.035C843 25.335 840.6 27.8351 838.5 30.4351C837.6 31.4351 836.5 32.235 835.3 32.735C834.2 33.235 833 33.535 831.8 33.635C830.5 33.835 829.2 33.835 827.9 33.635H678.7V33.235H532.2C530.9 33.335 529.6 33.335 528.3 33.235C527.1 33.135 526 32.7351 524.8 32.3351C523.6 31.8351 522.5 31.035 521.6 30.035C519.4 27.435 517.1 24.935 514.6 22.635H514.5V22.535C514.1 21.835 513.4 21.2351 512.6 20.8351C511.6 20.3351 510.6 19.935 509.5 19.735C507.8 19.435 506 19.3351 504.2 19.4351C498.7 20.0351 367.7 26.9351 366.4 26.9351H366.3L315.3 9.93506L3.00002 74.135L2.90002 73.4351Z" fill="url(#paint2_linear_118_4)"/>
<path d="M2.90002 68.535L315.7 4.13501H315.8L366.7 21.9351C370.4 21.7351 500.4 14.535 505.1 14.035C506.9 13.935 508.8 14.0351 510.6 14.3351C511.8 14.5351 512.9 14.935 513.9 15.535C514.7 15.935 515.4 16.6351 515.9 17.4351C518.4 19.7351 520.8 22.2351 522.9 24.8351C523.7 25.7351 524.7 26.5351 525.8 26.9351C526.8 27.3351 527.9 27.6351 529.1 27.8351C530.3 28.0351 531.6 28.0351 532.8 27.8351H682.4V28.535H532.9C531.6 28.635 530.3 28.635 529 28.535C527.8 28.435 526.7 28.035 525.5 27.635C524.3 27.135 523.2 26.3351 522.3 25.3351C520.1 22.7351 517.8 20.2351 515.3 17.9351H515.2V17.8351C514.8 17.1351 514.1 16.535 513.3 16.235C512.3 15.735 511.3 15.335 510.2 15.135C508.5 14.835 506.7 14.7351 504.9 14.8351C500 15.3351 367.8 22.735 366.4 22.735H366.3L315.4 4.93506L3.00002 69.235L2.90002 68.535ZM1070 13.035L1038.1 7.23499L993 23.135H992.9H992.8C991.5 23.035 860.5 15.9351 855.7 15.4351C853.9 15.3351 852.2 15.435 850.4 15.735C849.3 15.935 848.3 16.2351 847.3 16.8351C846.5 17.2351 845.9 17.735 845.4 18.535V18.635L845.3 18.735C842.8 21.035 840.4 23.535 838.3 26.135C837.4 27.135 836.3 27.9351 835.1 28.4351C834 28.9351 832.8 29.2351 831.6 29.3351C830.3 29.5351 829 29.5351 827.7 29.3351H678.3V28.635H827.9C829.1 28.735 830.4 28.735 831.6 28.635C832.7 28.535 833.8 28.235 834.9 27.735C836 27.235 837 26.535 837.8 25.635C840 23.035 842.3 20.535 844.8 18.235C845.3 17.435 846 16.8351 846.9 16.3351C847.9 15.7351 849.1 15.435 850.2 15.135C852 14.835 853.9 14.7351 855.7 14.8351C860.3 15.3351 989 22.335 992.7 22.535L1037.8 6.63501H1037.9L1070 12.4351L1357.8 68.3351L1357.7 69.035L1070 13.035Z" fill="url(#paint3_linear_118_4)"/>
<path d="M920.3 15.735L931.6 16.8351L926.6 12.535L914.2 10.735L920.3 15.735ZM936.6 17.235L944.8 17.9351L940.5 14.3351L932 13.235L936.6 17.235ZM949.7 18.235L966.4 20.035L962.9 17.535L945.9 15.3351L949.7 18.235Z" fill="url(#paint4_linear_118_4)"/>
<path d="M437.4 12.535L433.2 16.8351L444.4 15.735L449.6 10.635L437.4 12.535ZM423.7 14.3351L420.2 17.9351L428.2 17.235L432 13.235L423.7 14.3351ZM401.7 17.535L398.9 20.035L415.3 18.235L418.4 15.3351L401.7 17.535Z" fill="url(#paint5_linear_118_4)"/>
<path d="M367.4 26.9351L316.6 9.73499L183.9 36.035L367.4 26.9351Z" fill="url(#paint6_linear_118_4)"/>
<path d="M367.4 21.735L316.6 4.53503L183.9 30.8351L367.4 21.735Z" fill="url(#paint7_linear_118_4)"/>
<path d="M987 28.9351L1037.8 11.735L1169 36.3351L987 28.9351Z" fill="url(#paint8_linear_118_4)"/>
<path d="M987 23.535L1037.8 6.33508L1113.7 19.8351L1171.2 30.035L987 23.535Z" fill="url(#paint9_linear_118_4)"/>
<path d="M680 16.2001C680 16.2001 661.4 21.9001 659 23.4001C659.1 22.6001 661.6 17.3002 661.6 17.3002C664.6 15.5002 680 8.6001 680 8.6001C680 8.6001 695.4 15.5002 698.4 17.3002C698.4 17.3002 700.9 22.6001 701 23.4001C698.7 21.9001 680 16.2001 680 16.2001Z" fill="url(#paint10_linear_118_4)"/>
<path opacity="0.302" d="M679.5 5.90002C679.5 5.90002 665.2 10.3 663.4 11.4C664 9.80002 664.6 8.19995 665.4 6.69995C667.7 5.29995 679.5 0 679.5 0C679.5 0 691.3 5.29995 693.6 6.69995C694.4 8.19995 695 9.80002 695.6 11.4C693.8 10.2 679.5 5.90002 679.5 5.90002Z" fill="url(#paint11_linear_118_4)"/>
<defs>
<linearGradient id="paint0_linear_118_4" x1="6.54866" y1="41.6525" x2="1329.12" y2="41.6525" gradientUnits="userSpaceOnUse">
<stop stop-color="#00EDFF"/>
<stop offset="0.233" stop-color="#00EDFF"/>
<stop offset="0.506" stop-color="#0088FF"/>
<stop offset="0.781" stop-color="#00EDFF"/>
<stop offset="1" stop-color="#007780"/>
</linearGradient>
<linearGradient id="paint1_linear_118_4" x1="677.437" y1="10.002" x2="677.437" y2="73.076" gradientUnits="userSpaceOnUse">
<stop stop-color="#193861"/>
<stop offset="0.884" stop-color="#080F18"/>
<stop offset="1" stop-color="#080F18"/>
</linearGradient>
<linearGradient id="paint2_linear_118_4" x1="680.243" y1="74.1287" x2="680.243" y2="9.17871" gradientUnits="userSpaceOnUse">
<stop stop-color="#00F6FF"/>
<stop offset="0.279" stop-color="#00F6FF"/>
<stop offset="1" stop-color="#00F6FF"/>
</linearGradient>
<linearGradient id="paint3_linear_118_4" x1="1349.76" y1="36.6949" x2="35.428" y2="36.6949" gradientUnits="userSpaceOnUse">
<stop stop-color="#00B1FF"/>
<stop offset="0.231" stop-color="#00D3FF"/>
<stop offset="0.386" stop-color="#00B5FF"/>
<stop offset="0.506" stop-color="#00B5FF"/>
<stop offset="0.648" stop-color="#00B3FD"/>
<stop offset="0.79" stop-color="#00D8FA"/>
<stop offset="1" stop-color="#00ACF5"/>
</linearGradient>
<linearGradient id="paint4_linear_118_4" x1="914.256" y1="15.3841" x2="966.369" y2="15.3841" gradientUnits="userSpaceOnUse">
<stop stop-color="#FFD500"/>
<stop offset="1" stop-color="#CBA900"/>
</linearGradient>
<linearGradient id="paint5_linear_118_4" x1="398.916" y1="15.3848" x2="449.582" y2="15.3848" gradientUnits="userSpaceOnUse">
<stop stop-color="#CBC400" stop-opacity="0"/>
<stop offset="1" stop-color="#DFBC05"/>
</linearGradient>
<linearGradient id="paint6_linear_118_4" x1="275.636" y1="33.2968" x2="275.636" y2="9.80822" gradientUnits="userSpaceOnUse">
<stop stop-color="#10233B" stop-opacity="0"/>
<stop offset="1" stop-color="#00FFF6" stop-opacity="0.439"/>
</linearGradient>
<linearGradient id="paint7_linear_118_4" x1="275.636" y1="28.0409" x2="275.636" y2="4.55236" gradientUnits="userSpaceOnUse">
<stop stop-color="#10233B" stop-opacity="0"/>
<stop offset="1" stop-color="#00FFF6" stop-opacity="0.439"/>
</linearGradient>
<linearGradient id="paint8_linear_118_4" x1="1077.97" y1="33.7547" x2="1077.97" y2="11.7645" gradientUnits="userSpaceOnUse">
<stop stop-color="#10233B" stop-opacity="0"/>
<stop offset="1" stop-color="#00FFF6" stop-opacity="0.439"/>
</linearGradient>
<linearGradient id="paint9_linear_118_4" x1="1079.13" y1="27.5352" x2="1079.13" y2="6.32013" gradientUnits="userSpaceOnUse">
<stop stop-color="#10233B" stop-opacity="0"/>
<stop offset="1" stop-color="#00FFF6" stop-opacity="0.439"/>
</linearGradient>
<linearGradient id="paint10_linear_118_4" x1="680.048" y1="23.3755" x2="680.048" y2="8.53563" gradientUnits="userSpaceOnUse">
<stop stop-color="#046F9C"/>
<stop offset="1" stop-color="#05C5D0"/>
</linearGradient>
<linearGradient id="paint11_linear_118_4" x1="679.535" y1="11.3967" x2="679.535" y2="0.0187936" gradientUnits="userSpaceOnUse">
<stop stop-color="#046F9C"/>
<stop offset="1" stop-color="#05C5D0"/>
</linearGradient>
</defs>
</svg>
